<?xml version="1.0" encoding="UTF-8"?>
<svg width="688px" height="136px" viewBox="0 0 688 136" version="1.1" xmlns="http://www.w3.org/2000/svg" xmlns:xlink="http://www.w3.org/1999/xlink">
    <title>lucidui-wordmark-on-light</title>
    <g id="lucidui-wordmark-on-light" stroke="none" fill="none" fill-rule="evenodd" stroke-width="1">
        <g id="Group" transform="translate(0, 1)">
            <g transform="translate(0, 2)" fill="#09203F" fill-rule="nonzero" id="Lucid-UI">
                <g transform="translate(155, -60)">
                    <path d="M11.616,171 C10.736,171 9.944,170.67 9.24,170.01 C8.536,169.35 8.184,168.536 8.184,167.568 L8.184,82.032 C8.184,81.064 8.536,80.25 9.24,79.59 C9.944,78.93 10.736,78.6 11.616,78.6 L33.528,78.6 C34.496,78.6 35.332,78.93 36.036,79.59 C36.74,80.25 37.092,81.064 37.092,82.032 L37.092,147.504 L75.24,147.504 C76.208,147.504 77.044,147.834 77.748,148.494 C78.452,149.154 78.804,149.968 78.804,150.936 L78.804,167.568 C78.804,168.536 78.452,169.35 77.748,170.01 C77.044,170.67 76.208,171 75.24,171 L11.616,171 Z" id="Path"></path>
                    <path d="M112.068,172.32 C107.404,172.32 103.114,171.22 99.198,169.02 C95.282,166.82 92.158,163.52 89.826,159.12 C87.494,154.72 86.328,149.176 86.328,142.488 L86.328,105.792 C86.328,104.824 86.658,104.01 87.318,103.35 C87.978,102.69 88.792,102.36 89.76,102.36 L110.616,102.36 C111.584,102.36 112.398,102.69 113.058,103.35 C113.718,104.01 114.048,104.824 114.048,105.792 L114.048,141.564 C114.048,148.34 117.084,151.728 123.156,151.728 C126.06,151.728 128.326,150.848 129.954,149.088 C131.582,147.328 132.396,144.82 132.396,141.564 L132.396,105.792 C132.396,104.824 132.726,104.01 133.386,103.35 C134.046,102.69 134.86,102.36 135.828,102.36 L156.684,102.36 C157.564,102.36 158.356,102.69 159.06,103.35 C159.764,104.01 160.116,104.824 160.116,105.792 L160.116,167.568 C160.116,168.536 159.764,169.35 159.06,170.01 C158.356,170.67 157.564,171 156.684,171 L137.412,171 C136.444,171 135.63,170.67 134.97,170.01 C134.31,169.35 133.98,168.536 133.98,167.568 L133.98,162.816 C131.78,166.072 128.788,168.47 125.004,170.01 C121.22,171.55 116.908,172.32 112.068,172.32 Z" id="Path"></path>
                    <path d="M206.976,172.32 C200.376,172.32 194.458,171.154 189.222,168.822 C183.986,166.49 179.806,163.058 176.682,158.526 C173.558,153.994 171.82,148.516 171.468,142.092 C171.38,140.684 171.336,138.924 171.336,136.812 C171.336,134.7 171.38,132.896 171.468,131.4 C171.82,124.888 173.536,119.366 176.616,114.834 C179.696,110.302 183.876,106.87 189.156,104.538 C194.436,102.206 200.376,101.04 206.976,101.04 C213.488,101.04 219.054,101.964 223.674,103.812 C228.294,105.66 232.034,107.948 234.894,110.676 C237.754,113.404 239.888,116.132 241.296,118.86 C242.704,121.588 243.452,123.876 243.54,125.724 C243.628,126.692 243.298,127.506 242.55,128.166 C241.802,128.826 240.988,129.156 240.108,129.156 L218.856,129.156 C217.888,129.156 217.14,128.936 216.612,128.496 C216.084,128.056 215.6,127.396 215.16,126.516 C214.28,124.58 213.268,123.15 212.124,122.226 C210.98,121.302 209.44,120.84 207.504,120.84 C204.776,120.84 202.752,121.786 201.432,123.678 C200.112,125.57 199.408,128.364 199.32,132.06 C199.144,135.668 199.144,138.792 199.32,141.432 C199.496,145.216 200.222,148.01 201.498,149.814 C202.774,151.618 204.776,152.52 207.504,152.52 C209.704,152.52 211.332,152.058 212.388,151.134 C213.444,150.21 214.368,148.78 215.16,146.844 C215.512,145.964 215.974,145.282 216.546,144.798 C217.118,144.314 217.888,144.072 218.856,144.072 L240.108,144.072 C240.988,144.072 241.802,144.424 242.55,145.128 C243.298,145.832 243.628,146.668 243.54,147.636 C243.452,148.868 242.99,150.518 242.154,152.586 C241.318,154.654 240.042,156.81 238.326,159.054 C236.61,161.298 234.344,163.432 231.528,165.456 C228.712,167.48 225.28,169.13 221.232,170.406 C217.184,171.682 212.432,172.32 206.976,172.32 Z" id="Path"></path>
                    <path d="M257.136,171 C256.168,171 255.354,170.67 254.694,170.01 C254.034,169.35 253.704,168.536 253.704,167.568 L253.704,105.792 C253.704,104.824 254.034,104.01 254.694,103.35 C255.354,102.69 256.168,102.36 257.136,102.36 L276.672,102.36 C277.64,102.36 278.476,102.69 279.18,103.35 C279.884,104.01 280.236,104.824 280.236,105.792 L280.236,167.568 C280.236,168.536 279.884,169.35 279.18,170.01 C278.476,170.67 277.64,171 276.672,171 L257.136,171 Z M257.4,93.78 C256.432,93.78 255.618,93.45 254.958,92.79 C254.298,92.13 253.968,91.316 253.968,90.348 L253.968,76.488 C253.968,75.52 254.298,74.684 254.958,73.98 C255.618,73.276 256.432,72.924 257.4,72.924 L276.408,72.924 C277.376,72.924 278.212,73.276 278.916,73.98 C279.62,74.684 279.972,75.52 279.972,76.488 L279.972,90.348 C279.972,91.316 279.62,92.13 278.916,92.79 C278.212,93.45 277.376,93.78 276.408,93.78 L257.4,93.78 Z" id="Shape"></path>
                    <path d="M319.836,172.32 C315.788,172.32 312.092,171.704 308.748,170.472 C305.404,169.24 302.5,167.348 300.036,164.796 C297.572,162.244 295.636,159.032 294.228,155.16 C292.82,151.288 291.984,146.756 291.72,141.564 C291.632,139.628 291.588,137.956 291.588,136.548 C291.588,135.14 291.632,133.512 291.72,131.664 C291.896,126.736 292.688,122.358 294.096,118.53 C295.504,114.702 297.44,111.512 299.904,108.96 C302.368,106.408 305.294,104.45 308.682,103.086 C312.07,101.722 315.788,101.04 319.836,101.04 C323.796,101.04 327.316,101.678 330.396,102.954 C333.476,104.23 336.072,105.924 338.184,108.036 L338.184,80.712 C338.184,79.744 338.536,78.93 339.24,78.27 C339.944,77.61 340.736,77.28 341.616,77.28 L361.944,77.28 C362.912,77.28 363.726,77.61 364.386,78.27 C365.046,78.93 365.376,79.744 365.376,80.712 L365.376,167.568 C365.376,168.536 365.046,169.35 364.386,170.01 C363.726,170.67 362.912,171 361.944,171 L343.332,171 C342.364,171 341.528,170.67 340.824,170.01 C340.12,169.35 339.768,168.536 339.768,167.568 L339.768,163.872 C337.656,166.424 334.994,168.47 331.782,170.01 C328.57,171.55 324.588,172.32 319.836,172.32 Z M328.812,151.728 C331.1,151.728 332.926,151.244 334.29,150.276 C335.654,149.308 336.622,148.032 337.194,146.448 C337.766,144.864 338.096,143.104 338.184,141.168 C338.36,139.232 338.448,137.538 338.448,136.086 C338.448,134.634 338.36,133.028 338.184,131.268 C338.096,129.42 337.722,127.792 337.062,126.384 C336.402,124.976 335.412,123.832 334.092,122.952 C332.772,122.072 331.012,121.632 328.812,121.632 C326.612,121.632 324.852,122.094 323.532,123.018 C322.212,123.942 321.266,125.218 320.694,126.846 C320.122,128.474 319.748,130.344 319.572,132.456 C319.308,135.272 319.308,138.088 319.572,140.904 C319.748,143.016 320.122,144.886 320.694,146.514 C321.266,148.142 322.212,149.418 323.532,150.342 C324.852,151.266 326.612,151.728 328.812,151.728 Z" id="Shape"></path>
                    <path d="M447.348,172.32 C439.164,172.32 431.97,171.044 425.766,168.492 C419.562,165.94 414.722,161.958 411.246,156.546 C407.77,151.134 406.032,144.292 406.032,136.02 L406.032,82.032 C406.032,81.064 406.384,80.25 407.088,79.59 C407.792,78.93 408.584,78.6 409.464,78.6 L430.98,78.6 C431.948,78.6 432.762,78.93 433.422,79.59 C434.082,80.25 434.412,81.064 434.412,82.032 L434.412,135.624 C434.412,140.112 435.512,143.5 437.712,145.788 C439.912,148.076 443.08,149.22 447.216,149.22 C451.352,149.22 454.498,148.076 456.654,145.788 C458.81,143.5 459.888,140.112 459.888,135.624 L459.888,82.032 C459.888,81.064 460.24,80.25 460.944,79.59 C461.648,78.93 462.484,78.6 463.452,78.6 L484.836,78.6 C485.804,78.6 486.618,78.93 487.278,79.59 C487.938,80.25 488.268,81.064 488.268,82.032 L488.268,136.02 C488.268,144.292 486.552,151.134 483.12,156.546 C479.688,161.958 474.892,165.94 468.732,168.492 C462.572,171.044 455.444,172.32 447.348,172.32 Z" id="Path"></path>
                    <path d="M506.408,171 C505.528,171 504.736,170.67 504.032,170.01 C503.328,169.35 502.976,168.536 502.976,167.568 L502.976,82.032 C502.976,81.064 503.328,80.25 504.032,79.59 C504.736,78.93 505.528,78.6 506.408,78.6 L528.848,78.6 C529.816,78.6 530.63,78.93 531.29,79.59 C531.95,80.25 532.28,81.064 532.28,82.032 L532.28,167.568 C532.28,168.536 531.95,169.35 531.29,170.01 C530.63,170.67 529.816,171 528.848,171 L506.408,171 Z" id="Path"></path>
                </g>
            </g>
            <ellipse id="Oval" fill="#FFFFFF" cx="66.5" cy="67" rx="66.5" ry="67"></ellipse>
            <g id="lui-mark" transform="translate(3.4065, 4.0131)" fill="#09203F">
                <g id="OBJECTS" transform="translate(0.5935, -0.0131)">
                    <path d="M62.4999592,125.999906 C27.9374841,125.999906 0,97.8384685 0,62.9999532 C0,28.1602584 27.9374841,0 62.4999592,0 C97.0624343,0 124.999918,28.1602584 124.999918,62.9999532 C124.999918,97.8384685 97.0624343,125.999906 62.4999592,125.999906 Z M70.8420206,108.637854 C70.8420206,107.24252 69.7191408,106.111392 68.3553096,106.111392 L56.6446087,106.111392 C55.2620629,106.111392 54.1578978,107.24252 54.1578978,108.637854 C54.1578978,110.011957 55.2620629,111.144264 56.6446087,111.144264 L68.3553096,111.144264 C69.7191408,111.144264 70.8420206,110.011957 70.8420206,108.637854 Z M86.8828268,91.8820578 C86.8828268,90.4879039 85.759947,89.3756474 84.3961159,89.3756474 L40.6038025,89.3756474 C39.2200871,89.3756474 38.1170916,90.4879039 38.1170916,91.8820578 C38.1170916,93.2762118 39.2200871,94.3884683 40.6038025,94.3884683 L84.3961159,94.3884683 C85.759947,94.3884683 86.8828268,93.2762118 86.8828268,91.8820578 Z M106.934419,75.146313 C106.934419,73.7521591 105.81154,72.6198513 104.447708,72.6198513 L20.5522099,72.6198513 C19.1684944,72.6198513 18.0654989,73.7521591 18.0654989,75.146313 C18.0654989,76.5215952 19.1684944,77.6527235 20.5522099,77.6527235 L104.447708,77.6527235 C105.81154,77.6527235 106.934419,76.5215952 106.934419,75.146313 Z M116.378307,55.2990809 C112.668125,28.660361 89.9496924,8.16559033 62.4999592,8.16559033 C35.0490563,8.16559033 12.3317938,28.660361 8.62161169,55.2990809 C8.06017178,59.3812863 11.268567,62.9999532 15.3588907,62.9999532 L109.641028,62.9999532 C113.711467,62.9999532 116.939747,59.3812863 116.378307,55.2990809 Z" id="&lt;Compound-Path&gt;"></path>
                </g>
            </g>
        </g>
    </g>
</svg>